<svg preserveAspectRatio="none" overflow="visible" style="display: block;" width="47.1358" height="38.2252" viewBox="0 0 47.1358 38.2252" fill="none" xmlns="http://www.w3.org/2000/svg">
<g id="13_Right_paw">
<path id="Vector" d="M26.8071 7.89078C15.5852 8.24147 6.46741 9.99489 2.96056 17.3593C-1.24766 26.4771 5.41535 33.4908 16.2866 35.5949L24.3523 36.9976C33.8208 39.1017 42.9386 31.7374 44.6921 23.6716C47.8482 13.1511 41.1852 1.22777 32.4181 1.22777L26.8071 7.89078Z" fill="#D8D7D1"/>
<path id="Vector_2" d="M15.9359 9.64421C7.51944 10.3456 3.31122 13.5017 1.90849 20.8661C0.85643 26.8278 6.46739 32.088 13.1304 34.1922C20.4948 27.8798 22.9496 15.9565 15.9359 9.64421Z" fill="#B9BBBD"/>
<path id="Vector_3" d="M26.4564 8.24147C14.5332 8.59215 6.81809 10.3456 3.31124 16.6579C-1.94903 25.425 4.71398 33.8415 24.0017 36.6469M34.8729 1.57846C43.2893 3.68257 47.4975 15.6059 44.6921 24.373C43.64 29.2826 41.1852 32.088 36.977 34.1922" stroke-width="3.15616" stroke-linecap="round" stroke-linejoin="round" stroke="#485563"/>
</g>
</svg>
