<svg preserveAspectRatio="none" overflow="visible" style="display: block;" width="75.0275" height="55.3328" viewBox="0 0 75.0275 55.3328" fill="none" xmlns="http://www.w3.org/2000/svg">
<g id="Tail">
<path id="Vector" d="M73.5348 45.3108C67.5642 24.4137 55.1966 7.3549 36.8583 2.66372C18.9466 -2.02746 3.16716 7.78137 1.88775 23.5608C-0.244608 36.3549 6.57892 47.4431 15.1083 53.8402L73.5348 47.8696V45.3108Z" fill="#D8D7D1" stroke-width="2.98529" stroke-linecap="round" stroke-linejoin="round" stroke="#485563"/>
<path id="Vector_2" d="M40.6966 6.50196C29.6083 12.899 20.226 27.399 19.7995 51.2814L39.4172 50.002C40.2701 35.0755 50.5054 23.5608 56.9025 19.2961L40.6966 6.50196Z" fill="#B9BBBD"/>
<path id="Vector_3" d="M33.4466 14.1784L25.7701 23.5608M41.976 13.3255L22.7848 32.9431M49.6525 15.8843L21.5054 41.4725M53.0642 21.8549L29.1819 47.8696M56.9025 27.8255L40.6966 47.0167M61.1672 34.649L50.0789 46.5902" stroke-width="2.13235" stroke-linecap="round" stroke-linejoin="round" stroke="#657586"/>
</g>
</svg>
